<svg t="1667395984644" class="icon" viewBox="0 0 1024 1024" version="1.1" xmlns="http://www.w3.org/2000/svg" p-id="5347" width="128" height="128"><path d="M793.6 153.6h-87.04v-30.72a40.96 40.96 0 0 0-40.96-40.96H358.4a40.96 40.96 0 0 0-40.96 40.96v30.72H230.4a40.96 40.96 0 0 0-40.96 40.96v665.6a40.96 40.96 0 0 0 40.96 40.96h563.2a40.96 40.96 0 0 0 40.96-40.96V194.56a40.96 40.96 0 0 0-40.96-40.96z m-394.24 10.24h225.28v71.68H399.36V163.84z m99.84 481.28H332.8c-28.27776 0-51.2-18.33984-51.2-40.96s22.92224-40.96 51.2-40.96h166.4c28.27776 0 51.2 18.33984 51.2 40.96s-22.92224 40.96-51.2 40.96zM691.2 477.7472H332.8c-28.27776 0-51.2-18.33984-51.2-40.96s22.92224-40.96 51.2-40.96h358.4c28.27776 0 51.2 18.33984 51.2 40.96s-22.92224 40.96-51.2 40.96z" p-id="5348"></path></svg>