<svg t="1667395651599" class="icon" viewBox="0 0 1024 1024" version="1.1" xmlns="http://www.w3.org/2000/svg" p-id="6993" width="128" height="128"><path d="M361.472 192c-11.264 0-20.992-9.728-20.992-20.992v-87.04c0-11.264 9.728-20.992 20.992-20.992h302.592c11.264 0 20.992 9.728 20.992 20.992v86.016c0 11.264-9.728 20.992-20.992 20.992H361.472v1.024z" p-id="6994"></path><path d="M856.064 135.68h-124.928v69.632c0 16.384-13.312 29.184-29.184 29.184H323.584c-15.872 0-29.184-13.312-29.184-29.184V136.192H169.472c-18.432 0-33.792 14.848-33.792 33.792v687.616c0 18.432 14.848 33.792 33.792 33.792h687.616c14.848 0 32.256-4.096 32.256-34.304V169.472c0.512-17.92-14.848-33.792-33.28-33.792z m-155.136 422.912c-10.752 97.792-96.256 171.52-194.56 168.448-26.624-1.024-52.736-7.168-76.8-18.944l-14.848-8.192-9.728 24.576c-4.096 10.24-16.384 15.36-22.016-3.584L348.16 617.984l108.544-6.656c7.168-0.512 11.776 7.68 7.168 13.312l-22.528 29.696 10.752 5.12c18.944 9.216 38.912 13.824 59.392 13.824 64 0 120.832-44.544 133.632-107.52 17.92-87.552-48.64-164.864-133.12-164.864-46.592 0-89.6 24.576-114.176 61.952-8.704 13.312-23.04 26.624-40.96 17.408-15.872-8.192-17.408-25.6-6.656-43.008C384.512 383.488 445.44 347.648 512 347.648c111.616 0 201.216 96.768 188.928 210.944z" p-id="6995"></path></svg>