<svg t="1667395541933" class="icon" viewBox="0 0 1024 1024" version="1.1" xmlns="http://www.w3.org/2000/svg" p-id="6832" width="128" height="128"><path d="M361.472 192c-11.264 0-20.992-9.728-20.992-20.992v-87.04c0-11.264 9.728-20.992 20.992-20.992h302.592c11.264 0 20.992 9.728 20.992 20.992v86.016c0 11.264-9.728 20.992-20.992 20.992H361.472v1.024z" p-id="6833"></path><path d="M856.064 135.68h-124.928v69.632c0 16.384-13.312 29.184-29.184 29.184H323.584c-15.872 0-29.184-13.312-29.184-29.184V136.192H169.472c-18.432 0-33.792 14.848-33.792 33.792v687.616c0 18.432 14.848 33.792 33.792 33.792h687.616c14.848 0 32.256-4.096 32.256-34.304V169.472c0.512-17.92-14.848-33.792-33.28-33.792z m-134.656 299.008l-243.2 242.688c-12.8 12.8-32.768 12.8-45.568 0l-130.048-130.048c-12.8-12.8-12.8-32.768 0-45.568s32.768-12.8 45.568 0l107.52 106.496 219.648-219.648c12.8-12.8 32.768-12.8 45.568 0 6.656 6.656 10.24 14.336 10.24 23.04 0 8.704-3.072 16.384-9.728 23.04z" p-id="6834"></path></svg>